<svg width="29" height="30" viewBox="0 0 29 30" fill="none" xmlns="http://www.w3.org/2000/svg">
    <g opacity="0.5">
    <g filter="url(#filter0_i_218_428)">
    <path fill-rule="evenodd" clip-rule="evenodd" d="M19 0H0V30H19C24.5228 30 29 25.5228 29 20V10C29 4.47715 24.5228 0 19 0ZM4.93934 16.0607L14.4853 25.6066C15.0711 26.1924 16.0208 26.1924 16.6066 25.6066C17.1924 25.0208 17.1924 24.0711 16.6066 23.4853L9.62132 16.5H24V13.5H9.62132L16.6066 6.51472C17.1924 5.92893 17.1924 4.97919 16.6066 4.3934C16.0208 3.80761 15.0711 3.80761 14.4853 4.3934L4.93934 13.9393C4.35355 14.5251 4.35355 15.4749 4.93934 16.0607Z" fill="#4FC8EC"/>
    </g>
    </g>
    <defs>
    <filter id="filter0_i_218_428" x="-4" y="0" width="33" height="30" filterUnits="userSpaceOnUse" color-interpolation-filters="sRGB">
    <feFlood flood-opacity="0" result="BackgroundImageFix"/>
    <feBlend mode="normal" in="SourceGraphic" in2="BackgroundImageFix" result="shape"/>
    <feColorMatrix in="SourceAlpha" type="matrix" values="0 0 0 0 0 0 0 0 0 0 0 0 0 0 0 0 0 0 127 0" result="hardAlpha"/>
    <feOffset dx="-4"/>
    <feGaussianBlur stdDeviation="2.5"/>
    <feComposite in2="hardAlpha" operator="arithmetic" k2="-1" k3="1"/>
    <feColorMatrix type="matrix" values="0 0 0 0 0.831373 0 0 0 0 0.803922 0 0 0 0 0.901961 0 0 0 1 0"/>
    <feBlend mode="normal" in2="shape" result="effect1_innerShadow_218_428"/>
    </filter>
    </defs>
</svg>
